<mxfile host="drawio-plugin" modified="2021-04-26T06:12:24.489Z" agent="5.0 (Windows NT 6.2; Win64; x64) AppleWebKit/537.36 (KHTML, like Gecko) Chrome/87.0.4280.141 Safari/537.36" etag="b5KcPSqWn2GKJ8J4WRbp" version="13.7.9" type="embed"><diagram id="C5RBs43oDa-KdzZeNtuy" name="Page-1"><mxGraphModel dx="498" dy="858" grid="1" gridSize="10" guides="1" tooltips="1" connect="1" arrows="1" fold="1" page="1" pageScale="1" pageWidth="827" pageHeight="1169" math="0" shadow="0"><root><mxCell id="WIyWlLk6GJQsqaUBKTNV-0"/><mxCell id="WIyWlLk6GJQsqaUBKTNV-1" parent="WIyWlLk6GJQsqaUBKTNV-0"/><mxCell id="1" value="" style="edgeStyle=orthogonalEdgeStyle;rounded=0;orthogonalLoop=1;jettySize=auto;html=1;entryX=0.5;entryY=0;entryDx=0;entryDy=0;exitX=0.5;exitY=1;exitDx=0;exitDy=0;" parent="WIyWlLk6GJQsqaUBKTNV-1" source="0" target="WIyWlLk6GJQsqaUBKTNV-3" edge="1"><mxGeometry relative="1" as="geometry"/></mxCell><mxCell id="7" value="" style="edgeStyle=orthogonalEdgeStyle;rounded=0;orthogonalLoop=1;jettySize=auto;html=1;" parent="WIyWlLk6GJQsqaUBKTNV-1" source="WIyWlLk6GJQsqaUBKTNV-3" target="WIyWlLk6GJQsqaUBKTNV-6" edge="1"><mxGeometry relative="1" as="geometry"/></mxCell><mxCell id="WIyWlLk6GJQsqaUBKTNV-3" value="Show logo" style="rounded=1;whiteSpace=wrap;html=1;fontSize=12;glass=0;strokeWidth=1;shadow=0;" parent="WIyWlLk6GJQsqaUBKTNV-1" vertex="1"><mxGeometry x="280" y="70" width="120" height="20" as="geometry"/></mxCell><mxCell id="8" value="No" style="edgeStyle=orthogonalEdgeStyle;rounded=0;orthogonalLoop=1;jettySize=auto;html=1;" parent="WIyWlLk6GJQsqaUBKTNV-1" source="WIyWlLk6GJQsqaUBKTNV-6" target="WIyWlLk6GJQsqaUBKTNV-7" edge="1"><mxGeometry x="-0.75" relative="1" as="geometry"><mxPoint as="offset"/></mxGeometry></mxCell><mxCell id="92" value="Yes" style="edgeStyle=orthogonalEdgeStyle;rounded=0;orthogonalLoop=1;jettySize=auto;html=1;entryX=0.5;entryY=0;entryDx=0;entryDy=0;" edge="1" parent="WIyWlLk6GJQsqaUBKTNV-1" source="WIyWlLk6GJQsqaUBKTNV-6" target="90"><mxGeometry x="0.2" relative="1" as="geometry"><mxPoint as="offset"/></mxGeometry></mxCell><mxCell id="WIyWlLk6GJQsqaUBKTNV-6" value="User&lt;br&gt;want to play&lt;br&gt;" style="rhombus;whiteSpace=wrap;html=1;shadow=0;fontFamily=Helvetica;fontSize=12;align=center;strokeWidth=1;spacing=6;spacingTop=-4;" parent="WIyWlLk6GJQsqaUBKTNV-1" vertex="1"><mxGeometry x="280" y="110" width="120" height="60" as="geometry"/></mxCell><mxCell id="WIyWlLk6GJQsqaUBKTNV-7" value="Quit &lt;br&gt;game" style="rounded=1;whiteSpace=wrap;html=1;fontSize=12;glass=0;strokeWidth=1;shadow=0;" parent="WIyWlLk6GJQsqaUBKTNV-1" vertex="1"><mxGeometry x="620" y="120" width="60" height="40" as="geometry"/></mxCell><mxCell id="0" value="Run file" style="whiteSpace=wrap;html=1;rounded=1;shadow=0;strokeWidth=1;glass=0;" parent="WIyWlLk6GJQsqaUBKTNV-1" vertex="1"><mxGeometry x="280" y="30" width="120" height="20" as="geometry"/></mxCell><mxCell id="43" value="" style="edgeStyle=orthogonalEdgeStyle;rounded=0;orthogonalLoop=1;jettySize=auto;html=1;" parent="WIyWlLk6GJQsqaUBKTNV-1" source="12" target="42" edge="1"><mxGeometry relative="1" as="geometry"/></mxCell><mxCell id="12" value="Show playing field" style="rounded=1;whiteSpace=wrap;html=1;" parent="WIyWlLk6GJQsqaUBKTNV-1" vertex="1"><mxGeometry x="280" y="240" width="120" height="20" as="geometry"/></mxCell><mxCell id="93" style="edgeStyle=orthogonalEdgeStyle;rounded=0;orthogonalLoop=1;jettySize=auto;html=1;entryX=0.497;entryY=0.117;entryDx=0;entryDy=0;entryPerimeter=0;" edge="1" parent="WIyWlLk6GJQsqaUBKTNV-1" source="90" target="12"><mxGeometry relative="1" as="geometry"/></mxCell><mxCell id="90" value="Show playing field" style="rounded=1;whiteSpace=wrap;html=1;" vertex="1" parent="WIyWlLk6GJQsqaUBKTNV-1"><mxGeometry x="280" y="200" width="120" height="20" as="geometry"/></mxCell><mxCell id="23" value="No" style="edgeStyle=orthogonalEdgeStyle;rounded=0;orthogonalLoop=1;jettySize=auto;html=1;entryX=0;entryY=0.5;entryDx=0;entryDy=0;" parent="WIyWlLk6GJQsqaUBKTNV-1" source="21" target="24" edge="1"><mxGeometry relative="1" as="geometry"><mxPoint x="440" y="615" as="targetPoint"/></mxGeometry></mxCell><mxCell id="66" value="Yes" style="edgeStyle=orthogonalEdgeStyle;rounded=0;orthogonalLoop=1;jettySize=auto;html=1;" parent="WIyWlLk6GJQsqaUBKTNV-1" source="21" target="65" edge="1"><mxGeometry x="0.1111" relative="1" as="geometry"><mxPoint as="offset"/></mxGeometry></mxCell><mxCell id="21" value="Is match of 3?" style="rhombus;whiteSpace=wrap;html=1;" parent="WIyWlLk6GJQsqaUBKTNV-1" vertex="1"><mxGeometry x="280" y="585" width="120" height="60" as="geometry"/></mxCell><mxCell id="27" value="No" style="edgeStyle=orthogonalEdgeStyle;rounded=0;orthogonalLoop=1;jettySize=auto;html=1;entryX=0.5;entryY=1;entryDx=0;entryDy=0;" parent="WIyWlLk6GJQsqaUBKTNV-1" source="24" target="49" edge="1"><mxGeometry x="-0.2308" relative="1" as="geometry"><mxPoint x="599.9999999999999" y="300" as="targetPoint"/><Array as="points"/><mxPoint as="offset"/></mxGeometry></mxCell><mxCell id="68" value="Yes" style="edgeStyle=orthogonalEdgeStyle;rounded=0;orthogonalLoop=1;jettySize=auto;html=1;" parent="WIyWlLk6GJQsqaUBKTNV-1" source="24" target="67" edge="1"><mxGeometry x="0.1111" relative="1" as="geometry"><mxPoint as="offset"/></mxGeometry></mxCell><mxCell id="24" value="Is all cells full?" style="rhombus;whiteSpace=wrap;html=1;" parent="WIyWlLk6GJQsqaUBKTNV-1" vertex="1"><mxGeometry x="500" y="585" width="120" height="60" as="geometry"/></mxCell><mxCell id="37" value="" style="edgeStyle=orthogonalEdgeStyle;rounded=0;orthogonalLoop=1;jettySize=auto;html=1;" parent="WIyWlLk6GJQsqaUBKTNV-1" source="32" target="36" edge="1"><mxGeometry relative="1" as="geometry"/></mxCell><mxCell id="32" value="Ask player to move" style="whiteSpace=wrap;html=1;rounded=1;" parent="WIyWlLk6GJQsqaUBKTNV-1" vertex="1"><mxGeometry x="280" y="360" width="120" height="20" as="geometry"/></mxCell><mxCell id="40" value="No" style="edgeStyle=orthogonalEdgeStyle;rounded=0;orthogonalLoop=1;jettySize=auto;html=1;entryX=0.5;entryY=1;entryDx=0;entryDy=0;" parent="WIyWlLk6GJQsqaUBKTNV-1" source="36" target="39" edge="1"><mxGeometry x="-0.3333" relative="1" as="geometry"><mxPoint as="offset"/></mxGeometry></mxCell><mxCell id="59" value="Yes" style="edgeStyle=orthogonalEdgeStyle;rounded=0;orthogonalLoop=1;jettySize=auto;html=1;entryX=0.5;entryY=0;entryDx=0;entryDy=0;" parent="WIyWlLk6GJQsqaUBKTNV-1" source="36" target="55" edge="1"><mxGeometry relative="1" as="geometry"><mxPoint x="340" y="540" as="targetPoint"/><mxPoint as="offset"/></mxGeometry></mxCell><mxCell id="36" value="Move is &lt;br&gt;available?" style="rhombus;whiteSpace=wrap;html=1;" parent="WIyWlLk6GJQsqaUBKTNV-1" vertex="1"><mxGeometry x="280" y="400" width="120" height="60" as="geometry"/></mxCell><mxCell id="45" value="" style="edgeStyle=orthogonalEdgeStyle;rounded=0;orthogonalLoop=1;jettySize=auto;html=1;entryX=1;entryY=0.5;entryDx=0;entryDy=0;" parent="WIyWlLk6GJQsqaUBKTNV-1" source="39" target="32" edge="1"><mxGeometry relative="1" as="geometry"><mxPoint x="200" y="320" as="targetPoint"/><Array as="points"><mxPoint x="470" y="370"/></Array></mxGeometry></mxCell><mxCell id="39" value="Show error message" style="whiteSpace=wrap;html=1;" parent="WIyWlLk6GJQsqaUBKTNV-1" vertex="1"><mxGeometry x="410" y="390" width="120" height="20" as="geometry"/></mxCell><mxCell id="73" value="" style="edgeStyle=orthogonalEdgeStyle;rounded=0;orthogonalLoop=1;jettySize=auto;html=1;" parent="WIyWlLk6GJQsqaUBKTNV-1" source="42" target="72" edge="1"><mxGeometry relative="1" as="geometry"/></mxCell><mxCell id="42" value="Show current_player" style="whiteSpace=wrap;html=1;rounded=1;" parent="WIyWlLk6GJQsqaUBKTNV-1" vertex="1"><mxGeometry x="280" y="280" width="120" height="20" as="geometry"/></mxCell><mxCell id="76" style="edgeStyle=orthogonalEdgeStyle;rounded=0;orthogonalLoop=1;jettySize=auto;html=1;entryX=0.5;entryY=0;entryDx=0;entryDy=0;" parent="WIyWlLk6GJQsqaUBKTNV-1" source="72" target="32" edge="1"><mxGeometry relative="1" as="geometry"/></mxCell><mxCell id="72" value="Show score" style="whiteSpace=wrap;html=1;rounded=1;" parent="WIyWlLk6GJQsqaUBKTNV-1" vertex="1"><mxGeometry x="280" y="320" width="120" height="20" as="geometry"/></mxCell><mxCell id="64" value="" style="edgeStyle=orthogonalEdgeStyle;rounded=0;orthogonalLoop=1;jettySize=auto;html=1;entryX=1;entryY=0.5;entryDx=0;entryDy=0;exitX=0.5;exitY=0;exitDx=0;exitDy=0;" parent="WIyWlLk6GJQsqaUBKTNV-1" source="49" target="12" edge="1"><mxGeometry relative="1" as="geometry"><mxPoint x="500" y="340" as="targetPoint"/><mxPoint x="550" y="360" as="sourcePoint"/><Array as="points"><mxPoint x="560" y="250"/></Array></mxGeometry></mxCell><mxCell id="49" value="Change player" style="whiteSpace=wrap;html=1;" parent="WIyWlLk6GJQsqaUBKTNV-1" vertex="1"><mxGeometry x="500" y="500" width="120" height="20" as="geometry"/></mxCell><mxCell id="61" value="" style="edgeStyle=orthogonalEdgeStyle;rounded=0;orthogonalLoop=1;jettySize=auto;html=1;" parent="WIyWlLk6GJQsqaUBKTNV-1" source="55" target="60" edge="1"><mxGeometry relative="1" as="geometry"/></mxCell><mxCell id="55" value="Mark cell" style="rounded=0;whiteSpace=wrap;html=1;" parent="WIyWlLk6GJQsqaUBKTNV-1" vertex="1"><mxGeometry x="280" y="500" width="120" height="20" as="geometry"/></mxCell><mxCell id="62" value="" style="edgeStyle=orthogonalEdgeStyle;rounded=0;orthogonalLoop=1;jettySize=auto;html=1;" parent="WIyWlLk6GJQsqaUBKTNV-1" source="60" target="21" edge="1"><mxGeometry relative="1" as="geometry"/></mxCell><mxCell id="60" value="Dell num from help" style="rounded=0;whiteSpace=wrap;html=1;" parent="WIyWlLk6GJQsqaUBKTNV-1" vertex="1"><mxGeometry x="280" y="540" width="120" height="20" as="geometry"/></mxCell><mxCell id="82" value="" style="edgeStyle=orthogonalEdgeStyle;rounded=0;orthogonalLoop=1;jettySize=auto;html=1;" parent="WIyWlLk6GJQsqaUBKTNV-1" source="65" target="81" edge="1"><mxGeometry relative="1" as="geometry"/></mxCell><mxCell id="65" value="Show message&lt;br&gt;player win" style="whiteSpace=wrap;html=1;" parent="WIyWlLk6GJQsqaUBKTNV-1" vertex="1"><mxGeometry x="280" y="680" width="120" height="40" as="geometry"/></mxCell><mxCell id="79" style="edgeStyle=orthogonalEdgeStyle;rounded=0;orthogonalLoop=1;jettySize=auto;html=1;entryX=0.5;entryY=0;entryDx=0;entryDy=0;" parent="WIyWlLk6GJQsqaUBKTNV-1" source="67" target="77" edge="1"><mxGeometry relative="1" as="geometry"><Array as="points"><mxPoint x="560" y="780"/><mxPoint x="460" y="780"/></Array></mxGeometry></mxCell><mxCell id="67" value="Show message&lt;br&gt;&quot;draw&quot;" style="whiteSpace=wrap;html=1;" parent="WIyWlLk6GJQsqaUBKTNV-1" vertex="1"><mxGeometry x="500" y="680" width="120" height="40" as="geometry"/></mxCell><mxCell id="80" value="No" style="edgeStyle=orthogonalEdgeStyle;rounded=0;orthogonalLoop=1;jettySize=auto;html=1;" parent="WIyWlLk6GJQsqaUBKTNV-1" source="77" target="WIyWlLk6GJQsqaUBKTNV-7" edge="1"><mxGeometry x="-0.9294" relative="1" as="geometry"><mxPoint as="offset"/></mxGeometry></mxCell><mxCell id="84" value="Yes" style="edgeStyle=orthogonalEdgeStyle;rounded=0;orthogonalLoop=1;jettySize=auto;html=1;entryX=1;entryY=0.5;entryDx=0;entryDy=0;exitX=0;exitY=0.5;exitDx=0;exitDy=0;" parent="WIyWlLk6GJQsqaUBKTNV-1" source="77" target="87" edge="1"><mxGeometry x="0.1429" y="-10" relative="1" as="geometry"><Array as="points"><mxPoint x="360" y="840"/><mxPoint x="360" y="840"/></Array><mxPoint x="10" y="10" as="offset"/></mxGeometry></mxCell><mxCell id="77" value="Another &lt;br&gt;round?" style="rhombus;whiteSpace=wrap;html=1;" parent="WIyWlLk6GJQsqaUBKTNV-1" vertex="1"><mxGeometry x="400" y="810" width="120" height="60" as="geometry"/></mxCell><mxCell id="83" style="edgeStyle=orthogonalEdgeStyle;rounded=0;orthogonalLoop=1;jettySize=auto;html=1;" parent="WIyWlLk6GJQsqaUBKTNV-1" source="81" target="77" edge="1"><mxGeometry relative="1" as="geometry"><Array as="points"><mxPoint x="340" y="780"/><mxPoint x="460" y="780"/></Array></mxGeometry></mxCell><mxCell id="81" value="Update score" style="whiteSpace=wrap;html=1;" parent="WIyWlLk6GJQsqaUBKTNV-1" vertex="1"><mxGeometry x="280" y="740" width="120" height="20" as="geometry"/></mxCell><mxCell id="88" style="edgeStyle=orthogonalEdgeStyle;rounded=0;orthogonalLoop=1;jettySize=auto;html=1;entryX=0;entryY=0.5;entryDx=0;entryDy=0;" edge="1" parent="WIyWlLk6GJQsqaUBKTNV-1" source="87" target="12"><mxGeometry relative="1" as="geometry"/></mxCell><mxCell id="87" value="Reset playing field" style="rounded=0;whiteSpace=wrap;html=1;" vertex="1" parent="WIyWlLk6GJQsqaUBKTNV-1"><mxGeometry x="180" y="830" width="120" height="20" as="geometry"/></mxCell></root></mxGraphModel></diagram></mxfile>